# xmcd
#
# Track frame offsets:
#	150
#	17625
#	35039
#	42898
#	59382
#	78789
#	103488
#
# Disc length: 1621 seconds
#
# Revision: 1
# Processed by: cddbd v1.5.2PL0 Copyright (c) Steve Scherf et al.
# Submitted via: EasyCDDAExtractor 5.0.6
#
DISCID=55065307
DTITLE=Screamfeeder - Delusions Of Grandchildren EP
DYEAR=2005
DGENRE=Indie Rock
TTITLE0=All The Other Times
TTITLE1=Blue
TTITLE2=Delusions Of Grandchildren
TTITLE3=Time After Time
TTITLE4=Summer Rat
TTITLE5=Modern Morning
TTITLE6=Nuts To This
EXTD=
EXTT0=
EXTT1=
EXTT2=
EXTT3=
EXTT4=
EXTT5=
EXTT6=
PLAYORDER=
